<svg width="140" height="140" xmlns="http://www.w3.org/2000/svg">
 <!-- Created with Method Draw - http://github.com/duopixel/Method-Draw/ -->

 <g>
  <title>background</title>
  <rect fill="none" id="canvas_background" height="142" width="142" y="-1" x="-1"/>
 </g>
 <g>
  <title>Layer 1</title>
  <rect id="svg_4" height="140" width="140" y="0" x="0" fill-opacity="null" stroke-opacity="null" stroke-width="0" fill="#ffffd0"/>
  <path id="svg_2" d="m10,50a30,40 0 0 0 20,-12a30,40 0 0 0 40,0a30,40 0 0 0 40,0a30,40 0 0 0 20,12" stroke-width="4" fill="none" stroke="#10a0ff"/>
  <path id="svg_2" d="m10,70a30,40 0 0 0 20,-12a30,40 0 0 0 40,0a30,40 0 0 0 40,0a30,40 0 0 0 20,12" stroke-width="4" fill="none" stroke="#10a0ff"/>
  <path id="svg_2" d="m10,90a30,40 0 0 0 20,-12a30,40 0 0 0 40,0a30,40 0 0 0 40,0a30,40 0 0 0 20,12" stroke-width="4" fill="none" stroke="#10a0ff"/>
  <ellipse fill="#ffff00" stroke="#000000" cx="99" cy="91.4375" id="svg_1" rx="25" ry="25"/>
  <text stroke="#000000" xml:space="preserve" text-anchor="start" font-family="Helvetica, Arial, sans-serif" font-size="48" id="svg_3" y="109.4375" x="86" stroke-width="0" fill="#000000">$</text>
 </g>
</svg>